HIERARCHY
ROOT joint_0
{
	OFFSET 0.000000 0.000000 0.000000
	CHANNELS 6 Xposition Yposition Zposition Zrotation Yrotation Xrotation 
	JOINT joint_1
	{
		OFFSET 7.566162 2.250183 114.799927
		CHANNELS 3 Zrotation Yrotation Xrotation
		JOINT joint_2
		{
			OFFSET -5.201660 -0.414001 104.936035
			CHANNELS 3 Zrotation Yrotation Xrotation
			JOINT joint_3
			{
				OFFSET -6.923584 -0.419739 104.718018
				CHANNELS 3 Zrotation Yrotation Xrotation
				JOINT joint_4
				{
					OFFSET 3.108887 2.881104 149.449951
					CHANNELS 3 Zrotation Yrotation Xrotation
					JOINT joint_5
					{
						OFFSET 19.988770 5.920349 90.786987
						CHANNELS 3 Zrotation Yrotation Xrotation
						End Site
						{
							OFFSET 0.000000 0.000000 0.000000
						}
					}
				}
				JOINT joint_6
				{
					OFFSET 9.283936 -30.015930 84.410034
					CHANNELS 3 Zrotation Yrotation Xrotation
					JOINT joint_7
					{
						OFFSET 47.243164 -155.716736 -23.241089
						CHANNELS 3 Zrotation Yrotation Xrotation
						JOINT joint_8
						{
							OFFSET 31.323730 -15.356873 -268.798950
							CHANNELS 3 Zrotation Yrotation Xrotation
							JOINT joint_9
							{
								OFFSET 28.122314 -2.114624 -262.450012
								CHANNELS 3 Zrotation Yrotation Xrotation
								End Site
								{
									OFFSET 0.000000 0.000000 0.000000
								}
							}
						}
					}
				}
				JOINT joint_10
				{
					OFFSET -5.580566 33.311218 83.498047
					CHANNELS 3 Zrotation Yrotation Xrotation
					JOINT joint_11
					{
						OFFSET -22.773438 160.515381 -27.138062
						CHANNELS 3 Zrotation Yrotation Xrotation
						JOINT joint_12
						{
							OFFSET 27.004395 30.848877 -267.937988
							CHANNELS 3 Zrotation Yrotation Xrotation
							JOINT joint_13
							{
								OFFSET 32.625000 14.824585 -261.518005
								CHANNELS 3 Zrotation Yrotation Xrotation
								End Site
								{
									OFFSET 0.000000 0.000000 0.000000
								}
							}
						}
					}
				}
			}
		}
	}
	JOINT joint_14
	{
		OFFSET 20.623535 -83.447632 -106.174011
		CHANNELS 3 Zrotation Yrotation Xrotation
		JOINT joint_15
		{
			OFFSET 0.661865 -23.563843 -459.915039
			CHANNELS 3 Zrotation Yrotation Xrotation
			JOINT joint_16
			{
				OFFSET -23.461670 -28.727966 -444.760971
				CHANNELS 3 Zrotation Yrotation Xrotation
				JOINT joint_17
				{
					OFFSET 178.992920 54.047363 -80.113001
					CHANNELS 3 Zrotation Yrotation Xrotation
					End Site
					{
						OFFSET 0.000000 0.000000 0.000000
					}
				}
			}
		}
	}
	JOINT joint_18
	{
		OFFSET -19.571533 84.686279 -105.380005
		CHANNELS 3 Zrotation Yrotation Xrotation
		JOINT joint_19
		{
			OFFSET -22.949951 3.639404 -459.933044
			CHANNELS 3 Zrotation Yrotation Xrotation
			JOINT joint_20
			{
				OFFSET -33.690674 4.092651 -445.010971
				CHANNELS 3 Zrotation Yrotation Xrotation
				JOINT joint_21
				{
					OFFSET 187.419678 18.953857 -76.759001
					CHANNELS 3 Zrotation Yrotation Xrotation
					End Site
					{
						OFFSET 0.000000 0.000000 0.000000
					}
				}
			}
		}
	}
}
MOTION
Frames: 12
Frame Time: 0.016667
-3338.729248 879.371948 1112.780029 -15.623459 0.970842 -0.443281 0.110585 0.729013 1.003497 0.035608 -0.038740 -0.234590 0.061401 0.088336 0.151219 0.062626 -0.911175 -0.046321 0.000000 0.000000 0.000000 0.208790 3.585964 -0.803658 0.351970 4.419642 1.884523 0.411541 -1.051740 2.906381 0.000000 0.000000 0.000000 5.358912 5.180310 -1.636449 -0.033456 3.993920 -3.796586 0.039426 1.239038 -0.448781 0.000000 0.000000 0.000000 -0.935990 1.226737 1.948281 -0.846228 -1.269912 -0.282151 -0.894241 -1.051092 -0.083737 0.000000 0.000000 0.000000 2.825766 -1.102716 -0.811086 2.768306 1.034866 0.509062 2.672926 -2.002200 1.296117 0.000000 0.000000 0.000000 
-3336.806885 879.585510 1112.560059 -15.759166 1.708106 -0.618015 -0.090830 0.778984 1.056114 -0.175027 -0.091591 -0.274811 -0.145051 0.155968 0.174606 0.084707 -1.911670 0.143740 0.000000 0.000000 0.000000 0.832557 3.639380 -0.998058 0.421286 4.648463 1.970556 0.495670 -1.558337 3.317544 0.000000 0.000000 0.000000 5.583748 5.386609 -1.649223 -0.023018 4.158427 -3.870062 -0.038093 0.911807 -0.890829 0.000000 0.000000 0.000000 -0.986903 0.563165 2.071121 -0.911405 -1.390796 -0.233559 -0.965241 -1.083123 -0.105736 0.000000 0.000000 0.000000 2.963103 -1.765331 -0.640534 2.920155 0.972916 0.449662 2.816170 -2.074179 1.362224 0.000000 0.000000 0.000000 
-3334.541992 879.780273 1112.239014 -15.939666 2.655633 -0.837604 -0.342857 0.735846 1.129543 -0.436248 -0.162442 -0.320074 -0.401398 0.230037 0.208452 0.113239 -3.027084 0.385432 0.000000 0.000000 0.000000 1.722288 3.682741 -1.266805 0.518885 4.951493 2.135580 0.586787 -2.005733 3.766858 0.000000 0.000000 0.000000 5.919237 5.592492 -1.631039 -0.023866 4.296230 -3.956057 -0.112300 0.773966 -1.444718 0.000000 0.000000 0.000000 -1.066961 -0.293575 2.222455 -1.010543 -1.559425 -0.154085 -1.072403 -1.122954 -0.141475 0.000000 0.000000 0.000000 3.153655 -2.626980 -0.416991 3.130232 0.895166 0.362244 3.013681 -2.174915 1.453478 0.000000 0.000000 0.000000 
-3332.237305 879.785095 1111.984009 -16.131901 3.477709 -1.039995 -0.514216 0.777111 1.131361 -0.614358 -0.232503 -0.332351 -0.578538 0.301166 0.221895 0.130334 -3.765116 0.578182 0.000000 0.000000 0.000000 2.403367 3.655533 -1.357594 0.583924 5.040870 2.098231 0.667229 -2.043656 4.269625 0.000000 0.000000 0.000000 6.157230 5.598796 -1.652738 -0.020954 4.289401 -3.800121 -0.156991 0.949001 -1.976266 0.000000 0.000000 0.000000 -1.150551 -1.028313 2.347958 -1.113332 -1.676987 -0.051341 -1.174714 -1.223720 -0.156627 0.000000 0.000000 0.000000 3.341095 -3.358653 -0.197643 3.338304 0.855903 0.254363 3.205776 -2.346604 1.549589 0.000000 0.000000 0.000000 
-3330.072754 879.470032 1111.881958 -16.334703 4.067181 -1.208067 -0.550467 0.937413 1.017802 -0.653570 -0.309266 -0.281804 -0.625006 0.381053 0.182898 0.119992 -3.810244 0.622113 0.000000 0.000000 0.000000 2.722061 3.500603 -1.119195 0.580273 4.751413 1.721755 0.718772 -1.248712 4.843899 0.000000 0.000000 0.000000 6.246471 5.274502 -1.767635 -0.010327 4.049624 -3.210554 -0.141841 1.721098 -2.447847 0.000000 0.000000 0.000000 -1.238631 -1.528656 2.422156 -1.215679 -1.741405 0.098426 -1.264913 -1.410121 -0.140589 0.000000 0.000000 0.000000 3.520983 -3.835851 0.017505 3.540368 0.837614 0.113101 3.387235 -2.629867 1.652492 0.000000 0.000000 0.000000 
-3327.869629 878.965027 1111.844971 -16.545847 4.535281 -1.359256 -0.507938 1.174461 0.837013 -0.614141 -0.390331 -0.195511 -0.598029 0.469344 0.111266 0.094818 -3.487391 0.585985 0.000000 0.000000 0.000000 2.857023 3.269889 -0.709682 0.548820 4.251506 1.158258 0.771259 -0.047329 5.474427 0.000000 0.000000 0.000000 6.233102 4.748848 -1.916943 0.012736 3.666293 -2.370743 -0.088923 2.815471 -2.908030 0.000000 0.000000 0.000000 -1.330371 -1.912462 2.470481 -1.320438 -1.751852 0.268722 -1.347947 -1.665272 -0.100660 0.000000 0.000000 0.000000 3.697439 -4.188147 0.232705 3.740179 0.860331 -0.048515 3.562882 -2.989530 1.760651 0.000000 0.000000 0.000000 
-3325.395752 878.490845 1111.776001 -16.732237 4.877842 -1.483802 -0.417455 1.553842 0.642383 -0.536768 -0.468138 -0.122657 -0.531885 0.563724 0.048102 0.070678 -3.271828 0.591756 0.000000 0.000000 0.000000 2.846225 3.054820 -0.365839 0.516510 3.760874 0.587082 0.858639 0.637482 6.136204 0.000000 0.000000 0.000000 6.044631 4.216009 -1.985058 0.048740 3.284421 -1.602757 -0.063623 3.517610 -3.346945 0.000000 0.000000 0.000000 -1.395368 -2.215588 2.514988 -1.404541 -1.610676 0.369620 -1.396487 -1.989770 -0.024447 0.000000 0.000000 0.000000 3.829999 -4.469869 0.404903 3.892353 1.034300 -0.183710 3.691252 -3.366472 1.851143 0.000000 0.000000 0.000000 
-3322.816895 878.148376 1111.666992 -16.885182 5.030753 -1.566774 -0.261113 2.223901 0.426885 -0.415193 -0.551696 -0.080814 -0.418094 0.684854 0.003452 0.048259 -3.378743 0.704796 0.000000 0.000000 0.000000 2.639204 2.851055 -0.141820 0.466676 3.315301 0.103211 0.950993 0.451612 6.647038 0.000000 0.000000 0.000000 5.612731 3.683477 -1.908955 0.076221 2.886713 -1.069961 -0.078372 3.611330 -3.602593 0.000000 0.000000 0.000000 -1.408333 -2.433184 2.565493 -1.449593 -1.212091 0.339237 -1.385696 -2.398219 0.103484 0.000000 0.000000 0.000000 3.894163 -4.676407 0.506095 3.968699 1.458703 -0.262797 3.745157 -3.747130 1.911478 0.000000 0.000000 0.000000 
-3319.968262 877.836792 1111.526001 -17.012019 5.057939 -1.621283 -0.054022 3.039593 0.204349 -0.258792 -0.631188 -0.052700 -0.267974 0.809217 -0.035891 0.023862 -3.591796 0.862214 0.000000 0.000000 0.000000 2.287004 2.659935 0.007365 0.407202 2.883249 -0.375531 1.066857 -0.252639 7.184983 0.000000 0.000000 0.000000 5.012540 3.148924 -1.735415 0.101045 2.489283 -0.618888 -0.129718 3.310175 -3.829615 0.000000 0.000000 0.000000 -1.394120 -2.569171 2.610612 -1.473775 -0.664289 0.236988 -1.343865 -2.871076 0.264612 0.000000 0.000000 0.000000 3.915870 -4.811282 0.566221 3.998649 2.033403 -0.316960 3.751294 -4.139389 1.953336 0.000000 0.000000 0.000000 
-3316.121582 877.468628 1111.272949 -17.099594 5.154781 -1.680552 0.117810 3.611268 0.055132 -0.129811 -0.670088 -0.033995 -0.143202 0.874497 -0.061284 0.001571 -3.730788 0.990704 0.000000 0.000000 0.000000 1.981362 2.584487 -0.001449 0.386591 2.584106 -0.945154 1.299327 -1.353025 8.257144 0.000000 0.000000 0.000000 4.387837 2.795741 -1.510494 0.165657 2.288555 -0.102463 -0.264609 2.531155 -4.491976 0.000000 0.000000 0.000000 -1.399542 -2.681344 2.643069 -1.511213 -0.188156 0.151403 -1.322130 -3.363710 0.422768 0.000000 0.000000 0.000000 3.927635 -4.951852 0.630180 4.020819 2.574173 -0.389601 3.747953 -4.519545 1.989951 0.000000 0.000000 0.000000 
-3310.912598 877.012573 1110.864014 -17.118007 5.411909 -1.758352 0.220310 3.765595 0.037261 -0.047624 -0.668401 -0.032233 -0.062148 0.873484 -0.066229 -0.017074 -3.720237 1.062959 0.000000 0.000000 0.000000 1.805404 2.712835 -0.209080 0.442513 2.479883 -1.750729 1.733306 -2.943623 10.228727 0.000000 0.000000 0.000000 3.734748 2.695204 -1.295214 0.321435 2.388245 0.573743 -0.485610 1.181173 -5.756295 0.000000 0.000000 0.000000 -1.455212 -2.805253 2.657639 -1.588336 0.143257 0.123334 -1.347957 -3.883917 0.568069 0.000000 0.000000 0.000000 3.934030 -5.161508 0.719876 4.043010 3.049400 -0.502873 3.742549 -4.895402 2.025106 0.000000 0.000000 0.000000 
-3304.705566 876.500916 1110.342041 -17.097451 5.741977 -1.841330 0.283922 3.673291 0.092619 0.011917 -0.642345 -0.040376 -0.001807 0.838720 -0.060400 -0.033193 -3.641398 1.108276 0.000000 0.000000 0.000000 1.674694 2.981507 -0.502503 0.562041 2.484949 -2.722646 2.302310 -5.032022 12.657711 0.000000 0.000000 0.000000 3.049810 2.757165 -1.087356 0.590293 2.695488 1.365177 -0.734652 -0.670463 -7.426252 0.000000 0.000000 0.000000 -1.531500 -2.908960 2.660222 -1.679296 0.403335 0.113261 -1.391902 -4.419098 0.709874 0.000000 0.000000 0.000000 3.929227 -5.380654 0.813386 4.056623 3.490920 -0.632811 3.728227 -5.253786 2.054651 0.000000 0.000000 0.000000 
